<?xml version="1.0" encoding="UTF-8" standalone="no"?>
<!-- Created with Inkscape (http://www.inkscape.org/) -->

<svg
   id="svg2816"
   version="1.1"
   inkscape:version="1.2.1 (9c6d41e410, 2022-07-14)"
   width="104.89773"
   height="38.978535"
   sodipodi:docname="pinShadow.svg"
   inkscape:export-filename="pinShadow.png"
   inkscape:export-xdpi="75.574471"
   inkscape:export-ydpi="75.574471"
   xmlns:inkscape="http://www.inkscape.org/namespaces/inkscape"
   xmlns:sodipodi="http://sodipodi.sourceforge.net/DTD/sodipodi-0.dtd"
   xmlns="http://www.w3.org/2000/svg"
   xmlns:svg="http://www.w3.org/2000/svg"
   xmlns:rdf="http://www.w3.org/1999/02/22-rdf-syntax-ns#"
   xmlns:cc="http://creativecommons.org/ns#"
   xmlns:dc="http://purl.org/dc/elements/1.1/">
  <metadata
     id="metadata2822">
    <rdf:RDF>
      <cc:Work
         rdf:about="">
        <dc:format>image/svg+xml</dc:format>
        <dc:type
           rdf:resource="http://purl.org/dc/dcmitype/StillImage" />
      </cc:Work>
    </rdf:RDF>
  </metadata>
  <defs
     id="defs2820">
    <inkscape:perspective
       sodipodi:type="inkscape:persp3d"
       inkscape:vp_x="0 : -88.521465 : 1"
       inkscape:vp_y="0 : 1000 : 0"
       inkscape:vp_z="1 : -88.521465 : 1"
       inkscape:persp3d-origin="0.5 : -88.688132 : 1"
       id="perspective2824" />
  </defs>
  <sodipodi:namedview
     pagecolor="#ffffff"
     bordercolor="#666666"
     borderopacity="1"
     objecttolerance="10"
     gridtolerance="10"
     guidetolerance="10"
     inkscape:pageopacity="0"
     inkscape:pageshadow="2"
     inkscape:window-width="1920"
     inkscape:window-height="1001"
     id="namedview2818"
     showgrid="false"
     inkscape:zoom="6.1982327"
     inkscape:cx="51.708287"
     inkscape:cy="31.218576"
     inkscape:window-x="2391"
     inkscape:window-y="480"
     inkscape:window-maximized="1"
     inkscape:current-layer="g296"
     inkscape:showpageshadow="2"
     inkscape:pagecheckerboard="0"
     inkscape:deskcolor="#d1d1d1"
     inkscape:lockguides="false" />
  <path
     sodipodi:type="arc"
     style="opacity:0.340164;fill:#000000;fill-opacity:0;fill-rule:nonzero;stroke:none"
     id="path4131"
     sodipodi:cx="46.733597"
     sodipodi:cy="-39.401047"
     sodipodi:rx="26.010695"
     sodipodi:ry="20.991087"
     d="M 41.309569,-18.871432 A 26.010695,20.991087 0 0 1 21.260774,-43.647795 26.010695,20.991087 0 0 1 51.833907,-59.984631 26.010695,20.991087 0 0 1 72.271236,-35.415882 26.010695,20.991087 0 0 1 41.957828,-18.766817"
     sodipodi:start="1.7808687"
     sodipodi:end="1.7554518"
     sodipodi:open="true"
     sodipodi:arc-type="arc" />
  <path
     sodipodi:type="arc"
     style="fill:#000080;fill-opacity:0;fill-rule:nonzero;stroke:none"
     id="path4135"
     sodipodi:cx="33.043755"
     sodipodi:cy="14.787901"
     sodipodi:rx="16.655972"
     sodipodi:ry="11.750445"
     d="M 29.570473,26.280022 A 16.655972,11.750445 0 0 1 16.73221,12.410645 16.655972,11.750445 0 0 1 36.309743,3.2655684 16.655972,11.750445 0 0 1 49.396805,17.018727 16.655972,11.750445 0 0 1 29.985587,26.338584"
     sodipodi:start="1.7808687"
     sodipodi:end="1.7554518"
     sodipodi:open="true"
     sodipodi:arc-type="arc" />
  <g
     id="g296"
     transform="matrix(1,0,-0.52732945,0.30945924,30.614753,-0.21177479)"
     style="fill:#000000;fill-opacity:0.237327">
    <path
       id="path4127"
       style="fill:#000000;fill-opacity:0.186636"
       d="M 43.694882,0.77276655 A 44.988737,43.921159 0 0 0 2.4863727,35.719059 44.988737,43.921159 0 0 0 1.681797,45.975105 C 0.39435013,69.869046 19.182408,91.8497 36.602143,114.97778 c 4.210787,5.225 10.090128,10.97599 10.373159,11.66349 l 9.453644,-11.15858 C 78.120091,87.168307 109.83702,45.745335 80.575064,16.027451 A 44.988737,43.921159 0 0 0 55.367125,1.5364475 44.988737,43.921159 0 0 0 43.694882,0.77276655 Z M 46.893597,24.768758 a 22.589687,22.105565 90 0 1 4.067895,0.410242 22.589687,22.105565 90 0 1 3.910498,1.211791 22.589687,22.105565 90 0 1 1.196459,0.605896 22.589687,22.105565 90 0 1 2.449718,1.338019 22.589687,22.105565 90 0 1 1.239245,0.927778 22.589687,22.105565 90 0 1 1.977455,1.65359 22.589687,22.105565 90 0 1 1.160139,1.237037 22.589687,22.105565 90 0 1 1.544974,1.918669 22.589687,22.105565 90 0 1 0.943,1.432691 22.589687,22.105565 90 0 1 1.154305,2.196372 22.589687,22.105565 90 0 1 0.678908,1.56523 22.589687,22.105565 90 0 1 0.741355,2.461451 22.589687,22.105565 90 0 1 0.382032,1.56523 22.589687,22.105565 90 0 1 0.280094,2.827513 22.589687,22.105565 90 0 1 0.09092,1.331708 22.589687,22.105565 90 0 1 -0.378189,4.171844 22.589687,22.105565 90 0 1 -0.312141,1.3822 22.589687,22.105565 90 0 1 -0.01048,0.05049 22.589687,22.105565 90 0 1 -0.07137,0.246145 22.589687,22.105565 90 0 1 -0.269724,0.940401 22.589687,22.105565 90 0 1 -0.203353,0.599584 22.589687,22.105565 90 0 1 -0.272492,0.757369 22.589687,22.105565 90 0 1 -0.192369,0.479668 22.589687,22.105565 90 0 1 -0.386413,0.870975 22.589687,22.105565 90 0 1 -0.165761,0.35975 22.589687,22.105565 90 0 1 -0.461569,0.902532 22.589687,22.105565 90 0 1 -0.19173,0.366062 22.589687,22.105565 90 0 1 -0.703222,1.173923 22.589687,22.105565 90 0 1 -0.814549,1.173923 22.589687,22.105565 90 0 1 -0.01794,0.02524 22.589687,22.105565 90 0 1 -0.086,0.107294 22.589687,22.105565 90 0 1 -0.69421,0.883598 22.589687,22.105565 90 0 1 -0.376401,0.441799 22.589687,22.105565 90 0 1 -0.52779,0.58065 22.589687,22.105565 90 0 1 -0.426605,0.435487 22.589687,22.105565 90 0 1 -0.540744,0.530159 22.589687,22.105565 90 0 1 -0.39934,0.372374 22.589687,22.105565 90 0 1 -0.956804,0.80786 22.589687,22.105565 90 0 1 -0.02575,0.02525 22.589687,22.105565 90 0 1 -0.0064,0.0063 22.589687,22.105565 90 0 1 -1.155365,0.864664 22.589687,22.105565 90 0 1 -1.146336,0.744747 22.589687,22.105565 90 0 1 -0.420404,0.239833 22.589687,22.105565 90 0 1 -0.681745,0.384997 22.589687,22.105565 90 0 1 -0.719872,0.353439 22.589687,22.105565 90 0 1 -0.477841,0.227211 22.589687,22.105565 90 0 1 -0.588731,0.265079 22.589687,22.105565 90 0 1 -0.790044,0.309259 22.589687,22.105565 90 0 1 -0.531592,0.195654 22.589687,22.105565 90 0 1 -0.746575,0.239834 22.589687,22.105565 90 0 1 -0.478139,0.145162 22.589687,22.105565 90 0 1 -1.324981,0.328194 22.589687,22.105565 90 0 1 -1.419606,0.252456 22.589687,22.105565 90 0 1 -1.206077,0.138851 22.589687,22.105565 90 0 1 -0.6935,0.04418 22.589687,22.105565 90 0 1 -0.637656,0.03156 22.589687,22.105565 90 0 1 -0.586515,0.0063 22.589687,22.105565 90 0 1 -0.922094,-0.01893 22.589687,22.105565 90 0 1 -0.412328,-0.01893 22.589687,22.105565 90 0 1 -0.813954,-0.06943 22.589687,22.105565 90 0 1 -0.655173,-0.07574 22.589687,22.105565 90 0 1 -0.02344,0 22.589687,22.105565 90 0 1 -1.220362,-0.195654 L 42.014823,69.421982 A 22.589687,22.105565 90 0 1 38.137669,68.166011 22.589687,22.105565 90 0 1 36.884709,67.515936 22.589687,22.105565 90 0 1 34.501975,66.171605 22.589687,22.105565 90 0 1 33.251949,65.21227 22.589687,22.105565 90 0 1 31.319993,63.552368 22.589687,22.105565 90 0 1 30.179964,62.30902 22.589687,22.105565 90 0 1 28.649599,60.358794 22.589687,22.105565 90 0 1 27.727287,58.91348 22.589687,22.105565 90 0 1 26.5962,56.698174 a 22.589687,22.105565 90 0 1 -0.65547,-1.56523 22.589687,22.105565 90 0 1 -0.712277,-2.480385 22.589687,22.105565 90 0 1 -0.357798,-1.552608 22.589687,22.105565 90 0 1 -0.251813,-2.85907 22.589687,22.105565 90 0 1 -0.07117,-1.312774 22.589687,22.105565 90 0 1 0.432298,-4.165532 22.589687,22.105565 90 0 1 1.213566,-3.995125 22.589687,22.105565 90 0 1 0.602377,-1.224414 22.589687,22.105565 90 0 1 1.301614,-2.461451 22.589687,22.105565 90 0 1 0.972157,-1.338019 22.589687,22.105565 90 0 1 1.595791,-1.962849 22.589687,22.105565 90 0 1 1.163441,-1.123432 22.589687,22.105565 90 0 1 1.976466,-1.640967 22.589687,22.105565 90 0 1 1.32485,-0.902532 22.589687,22.105565 90 0 1 2.25219,-1.218103 22.589687,22.105565 90 0 1 1.45154,-0.643764 22.589687,22.105565 90 0 1 2.484007,-0.763681 22.589687,22.105565 90 0 1 1.476887,-0.366062 22.589687,22.105565 90 0 1 2.786575,-0.271391 22.589687,22.105565 90 0 1 1.312202,-0.08205 z" />
  </g>
</svg>
